<?xml version="1.0" encoding="UTF-8" standalone="no"?><svg xmlns="http://www.w3.org/2000/svg" xmlns:xlink="http://www.w3.org/1999/xlink" clip-rule="evenodd" stroke-miterlimit="4.00" viewBox="0 0 1024 768"><desc>SVG generated by Keynote</desc><defs></defs><g transform="matrix(1.00, 0.00, -0.00, -1.00, 0.0, 768.0)"><path d="M 0.0 768.0 L 1024.0 768.0 L 1024.0 0.0 L 0.0 0.0 Z M 0.0 768.0 " fill="#212121"></path><text xml:space="preserve" font-family="AvenirNext-Medium" font-size="46.0" fill="#838686" transform="matrix(1.00, 0.00, -0.00, -1.00, 378.0, 641.0)">S</text><text xml:space="preserve" font-family="AvenirNext-Medium" font-size="46.0" fill="#838686" transform="matrix(1.00, 0.00, -0.00, -1.00, 404.2, 641.0)">c</text><text xml:space="preserve" font-family="AvenirNext-Medium" font-size="46.0" fill="#838686" transform="matrix(1.00, 0.00, -0.00, -1.00, 426.9, 641.0)">i</text><text xml:space="preserve" font-family="AvenirNext-Medium" font-size="46.0" fill="#838686" transform="matrix(1.00, 0.00, -0.00, -1.00, 438.8, 641.0)">e</text><text xml:space="preserve" font-family="AvenirNext-Medium" font-size="46.0" fill="#838686" transform="matrix(1.00, 0.00, -0.00, -1.00, 465.2, 641.0)">n</text><text xml:space="preserve" font-family="AvenirNext-Medium" font-size="46.0" fill="#838686" transform="matrix(1.00, 0.00, -0.00, -1.00, 491.9, 641.0)">c</text><text xml:space="preserve" font-family="AvenirNext-Medium" font-size="46.0" fill="#838686" transform="matrix(1.00, 0.00, -0.00, -1.00, 514.7, 641.0)">e</text><text xml:space="preserve" font-family="AvenirNext-Medium" font-size="46.0" fill="#838686" transform="matrix(1.00, 0.00, -0.00, -1.00, 183.0, 487.0)">A</text><text xml:space="preserve" font-family="AvenirNext-Medium" font-size="46.0" fill="#838686" transform="matrix(1.00, 0.00, -0.00, -1.00, 215.7, 487.0)">r</text><text xml:space="preserve" font-family="AvenirNext-Medium" font-size="46.0" fill="#838686" transform="matrix(1.00, 0.00, -0.00, -1.00, 231.8, 487.0)">t</text><text xml:space="preserve" font-family="AvenirNext-Medium" font-size="46.0" fill="#838686" transform="matrix(1.00, 0.00, -0.00, -1.00, 648.0, 487.0)">T</text><text xml:space="preserve" font-family="AvenirNext-Medium" font-size="46.0" fill="#838686" transform="matrix(1.00, 0.00, -0.00, -1.00, 669.8, 487.0)">e</text><text xml:space="preserve" font-family="AvenirNext-Medium" font-size="46.0" fill="#838686" transform="matrix(1.00, 0.00, -0.00, -1.00, 696.1, 487.0)">c</text><text xml:space="preserve" font-family="AvenirNext-Medium" font-size="46.0" fill="#838686" transform="matrix(1.00, 0.00, -0.00, -1.00, 718.8, 487.0)">h</text><text xml:space="preserve" font-family="AvenirNext-Medium" font-size="46.0" fill="#838686" transform="matrix(1.00, 0.00, -0.00, -1.00, 745.7, 487.0)">n</text><text xml:space="preserve" font-family="AvenirNext-Medium" font-size="46.0" fill="#838686" transform="matrix(1.00, 0.00, -0.00, -1.00, 772.5, 487.0)">o</text><text xml:space="preserve" font-family="AvenirNext-Medium" font-size="46.0" fill="#838686" transform="matrix(1.00, 0.00, -0.00, -1.00, 800.5, 487.0)">l</text><text xml:space="preserve" font-family="AvenirNext-Medium" font-size="46.0" fill="#838686" transform="matrix(1.00, 0.00, -0.00, -1.00, 812.5, 487.0)">o</text><text xml:space="preserve" font-family="AvenirNext-Medium" font-size="46.0" fill="#838686" transform="matrix(1.00, 0.00, -0.00, -1.00, 840.6, 487.0)">g</text><text xml:space="preserve" font-family="AvenirNext-Medium" font-size="46.0" fill="#838686" transform="matrix(1.00, 0.00, -0.00, -1.00, 869.6, 487.0)">y</text><text xml:space="preserve" font-family="AvenirNext-Medium" font-size="46.0" fill="#838686" transform="matrix(1.00, 0.00, -0.00, -1.00, 640.0, 173.0)">E</text><text xml:space="preserve" font-family="AvenirNext-Medium" font-size="46.0" fill="#838686" transform="matrix(1.00, 0.00, -0.00, -1.00, 667.6, 173.0)">n</text><text xml:space="preserve" font-family="AvenirNext-Medium" font-size="46.0" fill="#838686" transform="matrix(1.00, 0.00, -0.00, -1.00, 694.4, 173.0)">g</text><text xml:space="preserve" font-family="AvenirNext-Medium" font-size="46.0" fill="#838686" transform="matrix(1.00, 0.00, -0.00, -1.00, 723.5, 173.0)">i</text><text xml:space="preserve" font-family="AvenirNext-Medium" font-size="46.0" fill="#838686" transform="matrix(1.00, 0.00, -0.00, -1.00, 735.4, 173.0)">n</text><text xml:space="preserve" font-family="AvenirNext-Medium" font-size="46.0" fill="#838686" transform="matrix(1.00, 0.00, -0.00, -1.00, 762.2, 173.0)">e</text><text xml:space="preserve" font-family="AvenirNext-Medium" font-size="46.0" fill="#838686" transform="matrix(1.00, 0.00, -0.00, -1.00, 788.5, 173.0)">e</text><text xml:space="preserve" font-family="AvenirNext-Medium" font-size="46.0" fill="#838686" transform="matrix(1.00, 0.00, -0.00, -1.00, 814.9, 173.0)">r</text><text xml:space="preserve" font-family="AvenirNext-Medium" font-size="46.0" fill="#838686" transform="matrix(1.00, 0.00, -0.00, -1.00, 831.5, 173.0)">i</text><text xml:space="preserve" font-family="AvenirNext-Medium" font-size="46.0" fill="#838686" transform="matrix(1.00, 0.00, -0.00, -1.00, 843.5, 173.0)">n</text><text xml:space="preserve" font-family="AvenirNext-Medium" font-size="46.0" fill="#838686" transform="matrix(1.00, 0.00, -0.00, -1.00, 870.2, 173.0)">g</text><text xml:space="preserve" font-family="AvenirNext-Medium" font-size="46.0" fill="#838686" transform="matrix(1.00, 0.00, -0.00, -1.00, 139.0, 173.0)">M</text><text xml:space="preserve" font-family="AvenirNext-Medium" font-size="46.0" fill="#838686" transform="matrix(1.00, 0.00, -0.00, -1.00, 180.5, 173.0)">a</text><text xml:space="preserve" font-family="AvenirNext-Medium" font-size="46.0" fill="#838686" transform="matrix(1.00, 0.00, -0.00, -1.00, 205.0, 173.0)">t</text><text xml:space="preserve" font-family="AvenirNext-Medium" font-size="46.0" fill="#838686" transform="matrix(1.00, 0.00, -0.00, -1.00, 220.1, 173.0)">h</text><g><clipPath id="clip-78"><path d="M 282.5 199.9 L 634.7 489.3 L 637.2 486.2 L 285.0 196.8 Z M 282.5 199.9 "></path></clipPath><g clip-path="url(#clip-78)"><path d="M 0.0 0.0 L 453.8 0.0 " fill="none" stroke="#34A4DA" stroke-width="2.00" transform="matrix(0.77, 0.63, 0.63, -0.77, 284.6, 199.0)"></path></g></g><g><clipPath id="clip-79"><path d="M 282.3 198.9 L 457.3 608.9 L 461.0 607.4 L 286.0 197.3 Z M 282.3 198.9 "></path></clipPath><g clip-path="url(#clip-79)"><path d="M 0.0 0.0 L 443.8 0.0 " fill="none" stroke="#34A4DA" stroke-width="2.00" transform="matrix(0.39, 0.92, 0.92, -0.39, 284.5, 199.0)"></path></g></g><g><clipPath id="clip-80"><path d="M 611.5 197.3 L 456.6 607.5 L 460.3 608.9 L 615.2 198.8 Z M 611.5 197.3 "></path></clipPath><g clip-path="url(#clip-80)"><path d="M 0.0 0.0 L 436.4 0.0 " fill="none" stroke="#34A4DA" stroke-width="2.00" transform="matrix(-0.35, 0.94, 0.94, 0.35, 613.0, 199.0)"></path></g></g><g><clipPath id="clip-81"><path d="M 612.4 196.3 L 295.5 486.8 L 298.2 489.7 L 615.1 199.3 Z M 612.4 196.3 "></path></clipPath><g clip-path="url(#clip-81)"><path d="M 0.0 0.0 L 427.9 0.0 " fill="none" stroke="#34A4DA" stroke-width="2.00" transform="matrix(-0.74, 0.68, 0.68, 0.74, 613.0, 198.5)"></path></g></g><g><clipPath id="clip-82"><path d="M 637.0 485.1 L 294.0 485.1 L 294.0 489.1 L 637.0 489.1 Z M 637.0 485.1 "></path></clipPath><g clip-path="url(#clip-82)"><path d="M 0.0 0.0 L 341.0 0.0 " fill="none" stroke="#34A4DA" stroke-width="2.00" transform="matrix(-1.00, 0.00, 0.00, 1.00, 636.0, 487.1)"></path></g></g><g><clipPath id="clip-83"><path d="M 615.1 197.5 L 282.1 197.5 L 282.1 201.5 L 615.1 201.5 Z M 615.1 197.5 "></path></clipPath><g clip-path="url(#clip-83)"><path d="M 0.0 0.0 L 330.9 0.0 " fill="none" stroke="#34A4DA" stroke-width="2.00" transform="matrix(-1.00, 0.00, 0.00, 1.00, 614.1, 199.5)"></path></g></g><g><clipPath id="clip-84"><path d="M 638.0 485.9 L 617.2 199.9 L 613.2 200.2 L 634.0 486.2 Z M 638.0 485.9 "></path></clipPath><g clip-path="url(#clip-84)"><path d="M 0.0 0.0 L 284.8 0.0 " fill="none" stroke="#34A4DA" stroke-width="2.00" transform="matrix(-0.07, -1.00, -1.00, 0.07, 636.0, 485.1)"></path></g></g><g><clipPath id="clip-85"><path d="M 297.6 488.8 L 286.6 199.7 L 282.6 199.8 L 293.6 489.0 Z M 297.6 488.8 "></path></clipPath><g clip-path="url(#clip-85)"><path d="M 0.0 0.0 L 287.4 0.0 " fill="none" stroke="#34A4DA" stroke-width="2.00" transform="matrix(-0.04, -1.00, -1.00, 0.04, 295.6, 487.9)"></path></g></g><g><clipPath id="clip-86"><path d="M 630.5 487.0 L 458.6 605.6 L 460.9 608.9 L 632.8 490.3 Z M 630.5 487.0 "></path></clipPath><g clip-path="url(#clip-86)"><path d="M 0.0 0.0 L 206.9 0.0 " fill="none" stroke="#34A4DA" stroke-width="2.00" transform="matrix(-0.82, 0.57, 0.57, 0.82, 630.8, 489.2)"></path></g></g><g><clipPath id="clip-87"><path d="M 295.5 487.0 L 456.5 612.0 L 459.0 608.8 L 297.9 483.9 Z M 295.5 487.0 "></path></clipPath><g clip-path="url(#clip-87)"><path d="M 0.0 0.0 L 201.8 0.0 " fill="none" stroke="#34A4DA" stroke-width="2.00" transform="matrix(0.79, 0.61, 0.61, -0.79, 297.5, 486.1)"></path></g></g></g></svg>