<?xml version="1.0" encoding="UTF-8" standalone="no"?><svg xmlns="http://www.w3.org/2000/svg" xmlns:xlink="http://www.w3.org/1999/xlink" clip-rule="evenodd" stroke-miterlimit="4.00" viewBox="0 0 1024 768"><desc>SVG generated by Keynote</desc><defs></defs><g transform="matrix(1.00, 0.00, -0.00, -1.00, 0.0, 768.0)"><path d="M 0.0 768.0 L 1024.0 768.0 L 1024.0 0.0 L 0.0 0.0 Z M 0.0 768.0 " fill="#212121"></path><text xml:space="preserve" font-family="DINCondensed-Bold" font-weight="bold" font-size="170.0" fill="#34A4DA" transform="matrix(1.00, 0.00, -0.00, -1.00, 36.0, 325.0)">M</text><text xml:space="preserve" font-family="DINCondensed-Bold" font-weight="bold" font-size="170.0" fill="#34A4DA" transform="matrix(1.00, 0.00, -0.00, -1.00, 130.5, 325.0)">A</text><text xml:space="preserve" font-family="DINCondensed-Bold" font-weight="bold" font-size="170.0" fill="#34A4DA" transform="matrix(1.00, 0.00, -0.00, -1.00, 199.7, 325.0)">K</text><text xml:space="preserve" font-family="DINCondensed-Bold" font-weight="bold" font-size="170.0" fill="#34A4DA" transform="matrix(1.00, 0.00, -0.00, -1.00, 272.1, 325.0)">E</text><text xml:space="preserve" font-family="DINCondensed-Bold" font-weight="bold" font-size="170.0" fill="#34A4DA" transform="matrix(1.00, 0.00, -0.00, -1.00, 335.0, 325.0)"> </text><text xml:space="preserve" font-family="DINCondensed-Bold" font-weight="bold" font-size="170.0" fill="#34A4DA" transform="matrix(1.00, 0.00, -0.00, -1.00, 366.7, 325.0)">I</text><text xml:space="preserve" font-family="DINCondensed-Bold" font-weight="bold" font-size="170.0" fill="#34A4DA" transform="matrix(1.00, 0.00, -0.00, -1.00, 401.3, 325.0)">T</text><text xml:space="preserve" font-family="DINCondensed-Bold" font-weight="bold" font-size="170.0" fill="#34A4DA" transform="matrix(1.00, 0.00, -0.00, -1.00, 457.8, 325.0)"> </text><text xml:space="preserve" font-family="DINCondensed-Bold" font-weight="bold" font-size="170.0" fill="#34A4DA" transform="matrix(1.00, 0.00, -0.00, -1.00, 489.4, 325.0)">T</text><text xml:space="preserve" font-family="DINCondensed-Bold" font-weight="bold" font-size="170.0" fill="#34A4DA" transform="matrix(1.00, 0.00, -0.00, -1.00, 536.5, 325.0)">A</text><text xml:space="preserve" font-family="DINCondensed-Bold" font-weight="bold" font-size="170.0" fill="#34A4DA" transform="matrix(1.00, 0.00, -0.00, -1.00, 605.7, 325.0)">N</text><text xml:space="preserve" font-family="DINCondensed-Bold" font-weight="bold" font-size="170.0" fill="#34A4DA" transform="matrix(1.00, 0.00, -0.00, -1.00, 681.2, 325.0)">G</text><text xml:space="preserve" font-family="DINCondensed-Bold" font-weight="bold" font-size="170.0" fill="#34A4DA" transform="matrix(1.00, 0.00, -0.00, -1.00, 753.6, 325.0)">I</text><text xml:space="preserve" font-family="DINCondensed-Bold" font-weight="bold" font-size="170.0" fill="#34A4DA" transform="matrix(1.00, 0.00, -0.00, -1.00, 788.2, 325.0)">B</text><text xml:space="preserve" font-family="DINCondensed-Bold" font-weight="bold" font-size="170.0" fill="#34A4DA" transform="matrix(1.00, 0.00, -0.00, -1.00, 860.7, 325.0)">L</text><text xml:space="preserve" font-family="DINCondensed-Bold" font-weight="bold" font-size="170.0" fill="#34A4DA" transform="matrix(1.00, 0.00, -0.00, -1.00, 923.6, 325.0)">E</text></g></svg>